<svg xmlns="http://www.w3.org/2000/svg" width="16" height="16" fill="none" viewBox="0 0 16 16"><path fill="#F7F8FA" stroke="#F7F8FA" stroke-linejoin="round" stroke-width="2" d="M9 10C9 9.44772 9.44772 9 10 9H15C15.5523 9 16 9.44772 16 10V15C16 15.5523 15.5523 16 15 16H10C9.44772 16 9 15.5523 9 15V10Z"/><path fill="#F7F8FA" d="M9 10C9 9.44772 9.44772 9 10 9H15C15.5523 9 16 9.44772 16 10V15C16 15.5523 15.5523 16 15 16H10C9.44772 16 9 15.5523 9 15V10Z"/><path fill="#6C707E" fill-rule="evenodd" d="M9 10C9 9.44772 9.44772 9 10 9H15C15.5523 9 16 9.44772 16 10V15C16 15.5523 15.5523 16 15 16H10C9.44772 16 9 15.5523 9 15V10ZM10 10H15V11H10V10ZM10 12V15H15V12H10Z" clip-rule="evenodd"/></svg>